<svg xmlns="http://www.w3.org/2000/svg" viewBox="0 0 926 428"><g transform="
          rotate(0 463 214) 
          translate(-0 -0)
          scale(1)
        "><rect width="926" height="4280" fill="rgb(255, 255, 255)"></rect><g transform="translate(0, 0)"><path fill="rgb(255, 208, 201)" fill-opacity="1" d="M0,47.253L25.722,50.967C51.444,54.682,102.889,62.111,154.333,70.76C205.778,79.409,257.222,89.278,308.667,88.604C360.111,87.93,411.556,76.713,463,77.969C514.444,79.224,565.889,92.953,617.333,104.089C668.778,115.224,720.222,123.767,771.667,122.198C823.111,120.629,874.556,108.95,900.278,103.11L926,97.271L926,428L900.278,428C874.556,428,823.111,428,771.667,428C720.222,428,668.778,428,617.333,428C565.889,428,514.444,428,463,428C411.556,428,360.111,428,308.667,428C257.222,428,205.778,428,154.333,428C102.889,428,51.444,428,25.722,428L0,428Z"></path></g><g transform="translate(0, 142.66666666666666)"><path fill="rgb(255, 161, 148)" fill-opacity="1" d="M0,86.352L25.722,77.605C51.444,68.858,102.889,51.364,154.333,49.165C205.778,46.966,257.222,60.061,308.667,55.039C360.111,50.017,411.556,26.878,463,18.898C514.444,10.919,565.889,18.099,617.333,23.095C668.778,28.091,720.222,30.902,771.667,37.783C823.111,44.664,874.556,55.614,900.278,61.089L926,66.564L926,285.333L900.278,285.333C874.556,285.333,823.111,285.333,771.667,285.333C720.222,285.333,668.778,285.333,617.333,285.333C565.889,285.333,514.444,285.333,463,285.333C411.556,285.333,360.111,285.333,308.667,285.333C257.222,285.333,205.778,285.333,154.333,285.333C102.889,285.333,51.444,285.333,25.722,285.333L0,285.333Z"></path></g><g transform="translate(0, 285.3333333333333)"><path fill="rgb(255, 114, 94)" fill-opacity="1" d="M0,43.343L25.722,39.02C51.444,34.696,102.889,26.048,154.333,37.567C205.778,49.086,257.222,80.772,308.667,93.265C360.111,105.758,411.556,99.058,463,82.065C514.444,65.072,565.889,37.787,617.333,24.683C668.778,11.579,720.222,12.655,771.667,19.907C823.111,27.16,874.556,40.588,900.278,47.302L926,54.016L926,142.667L900.278,142.667C874.556,142.667,823.111,142.667,771.667,142.667C720.222,142.667,668.778,142.667,617.333,142.667C565.889,142.667,514.444,142.667,463,142.667C411.556,142.667,360.111,142.667,308.667,142.667C257.222,142.667,205.778,142.667,154.333,142.667C102.889,142.667,51.444,142.667,25.722,142.667L0,142.667Z"></path></g></g></svg>