<svg xmlns="http://www.w3.org/2000/svg" viewBox="0 0 1920 1080"><g transform="
          rotate(0 960 540) 
          translate(-0 -0)
          scale(1)
        "><rect width="1920" height="2080" fill="rgb(230, 230, 230)"></rect><g transform="translate(0, 0)"><path fill="rgb(238, 191, 185)" fill-opacity="1" d="M0,119.235L53.333,128.609C106.667,137.982,213.333,156.728,320,178.553C426.667,200.378,533.333,225.282,640,223.581C746.667,221.88,853.333,193.575,960,196.743C1066.667,199.912,1173.333,234.555,1280,262.654C1386.667,290.753,1493.333,312.308,1600,308.35C1706.667,304.392,1813.333,274.921,1866.667,260.185L1920,245.449L1920,1080L1866.667,1080C1813.333,1080,1706.667,1080,1600,1080C1493.333,1080,1386.667,1080,1280,1080C1173.333,1080,1066.667,1080,960,1080C853.333,1080,746.667,1080,640,1080C533.333,1080,426.667,1080,320,1080C213.333,1080,106.667,1080,53.333,1080L0,1080Z"></path></g><g transform="translate(0, 360)"><path fill="rgb(247, 153, 139)" fill-opacity="1" d="M0,217.898L53.333,195.826C106.667,173.754,213.333,129.611,320,124.061C426.667,118.511,533.333,151.556,640,138.884C746.667,126.212,853.333,67.823,960,47.688C1066.667,27.552,1173.333,45.67,1280,58.276C1386.667,70.883,1493.333,77.978,1600,95.341C1706.667,112.704,1813.333,140.334,1866.667,154.149L1920,167.965L1920,720L1866.667,720C1813.333,720,1706.667,720,1600,720C1493.333,720,1386.667,720,1280,720C1173.333,720,1066.667,720,960,720C853.333,720,746.667,720,640,720C533.333,720,426.667,720,320,720C213.333,720,106.667,720,53.333,720L0,720Z"></path></g><g transform="translate(0, 720)"><path fill="rgb(255, 114, 94)" fill-opacity="1" d="M0,109.371L53.333,98.46C106.667,87.55,213.333,65.728,320,94.795C426.667,123.861,533.333,203.816,640,235.341C746.667,266.865,853.333,249.958,960,207.08C1066.667,164.202,1173.333,95.351,1280,62.284C1386.667,29.217,1493.333,31.933,1600,50.234C1706.667,68.534,1813.333,102.418,1866.667,119.36L1920,136.303L1920,360L1866.667,360C1813.333,360,1706.667,360,1600,360C1493.333,360,1386.667,360,1280,360C1173.333,360,1066.667,360,960,360C853.333,360,746.667,360,640,360C533.333,360,426.667,360,320,360C213.333,360,106.667,360,53.333,360L0,360Z"></path></g></g></svg>