<svg version="1.1" id="fi_566461" xmlns="http://www.w3.org/2000/svg" xmlns:xlink="http://www.w3.org/1999/xlink" x="0px" y="0px" viewBox="0 0 512 512" style="enable-background:new 0 0 512 512;" xml:space="preserve">
<path style="fill:#FEA832;" d="M316,433.1V467c0,24.899-20.099,45-45,45h-30c-24.901,0-45-20.101-45-45v-33.9
	c0-8.401,6.599-16,15-16h90C309.401,417.1,316,424.699,316,433.1z"></path>
<path style="fill:#FE9923;" d="M316,433.1V467c0,24.899-20.099,45-45,45h-15v-94.9h45C309.401,417.1,316,424.699,316,433.1z"></path>
<path style="fill:#FEDB41;" d="M256,121c-10.8,0-21.599,1.199-32.401,3.9C175.6,136,136.901,174.099,125.2,221.8
	c-11.7,47.999,1.8,96.599,36.299,130.499C173.8,364.6,181,382.899,181,402.7v3.3c0,24.899,20.099,46,45,46h60
	c24.901,0,45-21.101,45-46v-3.3c0-19.501,7.5-38.401,20.7-51.301C376.901,325.899,391,292,391,256C391,180.399,329.801,121,256,121z
	"></path>
<path style="fill:#FFCC33;" d="M391,256c0,36-14.099,69.899-39.3,95.4c-13.2,12.9-20.7,31.8-20.7,51.3v3.3c0,24.899-20.099,46-45,46
	h-30V121C329.801,121,391,180.399,391,256z"></path>
<g>
	<path style="fill:#FEA832;" d="M118.114,139.325L75.692,96.903c-5.859-5.859-5.859-15.352,0-21.211s15.352-5.859,21.211,0
		l42.422,42.422c5.859,5.859,5.859,15.352,0,21.211C133.466,145.185,123.974,145.185,118.114,139.325z"></path>
	<path style="fill:#FEA832;" d="M76,271H15c-8.291,0-15-6.709-15-15s6.709-15,15-15h61c8.291,0,15,6.709,15,15
		C91,264.291,84.291,271,76,271z"></path>
</g>
<g>
	<path style="fill:#FE9923;" d="M497,271h-61c-8.291,0-15-6.709-15-15s6.709-15,15-15h61c8.291,0,15,6.709,15,15
		C512,264.291,505.291,271,497,271z"></path>
	<path style="fill:#FE9923;" d="M372.675,139.325c-5.859-5.859-5.859-15.352,0-21.211l42.422-42.422
		c5.859-5.859,15.352-5.859,21.211,0s5.859,15.352,0,21.211l-42.422,42.422C388.026,145.185,378.534,145.185,372.675,139.325z"></path>
</g>
<path style="fill:#FEA832;" d="M271,15v61c0,8.399-6.599,15-15,15s-15-6.601-15-15V15c0-8.401,6.599-15,15-15S271,6.599,271,15z"></path>
<path style="fill:#FE9923;" d="M271,15v61c0,8.399-6.599,15-15,15V0C264.401,0,271,6.599,271,15z"></path>
<g>
</g>
<g>
</g>
<g>
</g>
<g>
</g>
<g>
</g>
<g>
</g>
<g>
</g>
<g>
</g>
<g>
</g>
<g>
</g>
<g>
</g>
<g>
</g>
<g>
</g>
<g>
</g>
<g>
</g>
</svg>