<svg id="fi_2512050" viewBox="0 0 16.933333 16.933334" xmlns="http://www.w3.org/2000/svg" xmlns:svg="http://www.w3.org/2000/svg"><g id="layer1" transform="translate(0 -280.067)"><path id="path3590" d="m3.1124711 284.7413c.3896942-.27822.8661612-.44132 1.3854457-.44132 1.3237871 0 2.38125 1.05746 2.38125 2.38125v5.02812h-4.7635345v-.26562c.03229-.38249-.5593874-.38249-.5270976 0v.52917c.0005291.14541.1181417.26304.2635488.26355h7.9375v3.7052h-1.0588493v-2.9099c0-.35286-.5291666-.35286-.5291666 0v3.17345c-.0005292.14693.1186815.26618.2656152.26562h1.5859492c.146934.00055.266184-.11869.265618-.26562v-3.96875h5.820317c.146169.00056.2651-.11738.265615-.26355v-5.29115c0-1.60779-1.302107-2.9099-2.909898-2.9099h-2.117185v-2.64635h1.851567v1.05833h-1.058849c-.352864 0-.352864.52917 0 .52917h1.324467c.146169-.00052.26411-.11945.263549-.26562v-1.58801c-.000516-.14541-.118142-.26304-.263549-.26355h-2.3828c-.14541.00051-.263036.11814-.263552.26355v5.59449c-.454586.1187-.7953.53117-.7953 1.02112 0 .58137.47748 1.05834 1.058852 1.05834.581369 0 1.058333-.47697 1.058333-1.05834 0-.48916-.339238-.90114-.792718-1.02061v-2.15542h2.117185c1.323787 0 2.380732 1.05901 2.380732 2.3828v5.0276h-8.4671825v-5.02812c0-.98631-.4916223-1.85593-1.2417849-2.38228h3.8865834c.382492.0323.382492-.55939 0-.5271l-5.5448806-.00053c-.6410246-.00053-1.2268147.19936-1.7032552.53951-.3014556.20247.018177.64997.3074749.43047zm-1.8427805.61702c-.39291161 0-.74052384.30167-.74052384.69763v3.8964c0 .39596.34761223.69763.74052384.69763h4.8689524c.3577987.005.3577987-.53422 0-.52916h-4.6214215l2.0903115-1.76992.4547526.38447c.098698.0836.2433955.0836.3420957 0l.4542367-.38447 1.055751.89348c.269404.22807.6115023-.17604.3420956-.40411l-.988052-.83612.988052-.83612c.2694067-.22807-.072692-.63218-.3420956-.40411l-1.6810355 1.42265-2.7171465-2.29909h4.0932894c.3577987.005.3577987-.53422 0-.52916zm-.2113571.83509 2.1409554 1.81177-2.1409554 1.81075zm10.5828175 1.28157c0 .29539-.233778.52917-.529167.52917-.295392 0-.529685-.23378-.529685-.52917 0-.29431.232711-.52747.530457-.52916.297001.003.528395.23538.528395.52916z" font-variant-ligatures="normal" font-variant-position="normal" font-variant-caps="normal" font-variant-numeric="normal" font-variant-alternates="normal" font-feature-settings="normal" text-indent="0" text-align="start" text-decoration-line="none" text-decoration-style="solid" text-decoration-color="rgb(0,0,0)" text-transform="none" text-orientation="mixed" white-space="normal" shape-padding="0" isolation="auto" mix-blend-mode="normal" solid-color="rgb(0,0,0)" solid-opacity="1" vector-effect="none"></path></g></svg>