<svg id="fi_10789667" fill="currentColor" enable-background="new 0 0 512 512" viewBox="0 0 512 512" xmlns="http://www.w3.org/2000/svg"><path clip-rule="evenodd" d="m113.968 185.179c27.515 0 49.82 22.305 49.82 49.82 0 27.514-22.305 49.82-49.82 49.82s-49.82-22.305-49.82-49.82 22.305-49.82 49.82-49.82zm324.681 310.821h-323.673c-22.892 0-41.625-18.73-41.625-41.625s18.732-41.625 41.625-41.625h323.673c-7.833 9.364-13.096 20.943-14.669 33.625h-281.718c-4.418 0-8 3.582-8 8s3.582 8 8 8h281.717c1.574 12.682 6.836 24.261 14.67 33.625zm-97.649-364.008c0-30.459 0-60.918 0-91.376 0-10.042-8.19-18.232-18.232-18.232-44.512 0-89.024 0-133.536 0-10.042 0-18.232 8.19-18.232 18.232v91.376c0 10.042 8.19 18.232 18.232 18.232h41.717l25.051 48.472 25.051-48.473h41.717c10.042.001 18.232-8.189 18.232-18.231zm-38.961-86.525c4.418 0 8 3.582 8 8s-3.582 8-8 8h-92.078c-4.418 0-8-3.582-8-8s3.582-8 8-8zm0 65.674c4.418 0 8 3.582 8 8s-3.582 8-8 8h-92.077c-4.418 0-8-3.582-8-8s3.582-8 8-8zm0-32.837c4.418 0 8 3.582 8 8s-3.582 8-8 8h-92.077c-4.418 0-8-3.582-8-8s3.582-8 8-8zm-286.039 47.304c0-30.459 0-60.918 0-91.376 0-10.042 8.19-18.232 18.232-18.232h131.241c-6.452 6.229-10.472 14.962-10.472 24.616v5.687c-.392-4.052-3.807-7.22-7.962-7.22h-92.078c-4.418 0-8 3.582-8 8s3.582 8 8 8h92.078c4.155 0 7.57-3.168 7.962-7.22v31.281c-.391-4.054-3.806-7.223-7.962-7.223h-92.078c-4.418 0-8 3.582-8 8s3.582 8 8 8h92.078c4.156 0 7.571-3.17 7.962-7.223v31.284c-.391-4.054-3.806-7.223-7.962-7.223h-92.078c-4.418 0-8 3.582-8 8s3.582 8 8 8h92.078c4.156 0 7.571-3.17 7.962-7.223v18.458c0 4.163.748 8.154 2.116 11.848h-4.776v37.139l-35.677-37.139h-82.432c-10.042-.002-18.232-8.192-18.232-18.234zm480 0c0-30.459 0-60.918 0-91.376 0-10.042-8.19-18.232-18.232-18.232h-131.241c6.452 6.229 10.472 14.962 10.472 24.616v5.693c.389-4.055 3.806-7.226 7.962-7.226h92.078c4.418 0 8 3.582 8 8s-3.582 8-8 8h-92.078c-4.157 0-7.573-3.171-7.962-7.226v31.291c.389-4.055 3.806-7.226 7.962-7.226h92.078c4.418 0 8 3.582 8 8s-3.582 8-8 8h-92.078c-4.157 0-7.573-3.171-7.962-7.226v31.29c.389-4.055 3.806-7.226 7.962-7.226h92.078c4.418 0 8 3.582 8 8s-3.582 8-8 8h-92.078c-4.157 0-7.573-3.171-7.962-7.226v18.461c0 4.163-.748 8.154-2.116 11.848h4.777v37.139l35.677-37.139h82.431c10.042-.003 18.232-8.193 18.232-18.235zm-240.001 89.572c-27.514 0-49.82 22.305-49.82 49.82 0 27.514 22.305 49.819 49.82 49.819 27.514 0 49.819-22.305 49.819-49.819.001-27.515-22.304-49.82-49.819-49.82zm-94.894 181.572c11.609-41.495 49.695-71.932 94.895-71.932 45.201 0 83.287 30.437 94.895 71.932zm236.929-211.573c27.514 0 49.82 22.305 49.82 49.82 0 27.514-22.305 49.82-49.82 49.82-27.514 0-49.82-22.305-49.82-49.82s22.305-49.82 49.82-49.82zm-34.904 197.571h121.025c6.494 0 11.234-6 9.728-12.318-10.332-43.364-49.323-75.614-95.85-75.614-30.34 0-57.473 13.716-75.547 35.282 18.224 13.001 32.534 31.235 40.644 52.65zm-335.286.001h121.026c8.109-21.415 22.42-39.649 40.643-52.65-18.074-21.566-45.207-35.282-75.546-35.282-46.528 0-85.52 32.25-95.851 75.615-1.505 6.317 3.234 12.317 9.728 12.317z" fill-rule="evenodd"></path></svg>